<svg width="203" height="70" fill="none" xmlns="http://www.w3.org/2000/svg"><path fill-rule="evenodd" clip-rule="evenodd" d="m0 68.7 14.43.1V39.1h17.468V27.3h-17.36V13.4h17.36V.4L0 .3v68.4Zm56.962-54h-.543c-15.081.3-22.676 12.8-22.784 29-.109 16 11.066 26.1 23.327 26.3h.65c12.478-.1 22.894-11.3 22.894-27 0-17.5-8.789-28.4-23.544-28.3Zm.65 42.9h-.65c-8.03-.3-9.657-8.4-9.765-15.2 0-7.1 1.302-15.7 9.764-16 8.355-.2 9.657 9.4 9.657 15.1-.109 5.8-.434 16.1-9.005 16.1Zm129.005-16.3 14.43-25.1-14.756-.1-7.161 12.2L161.771 0h-16.275l4.34 7.1 21.374 35.1-15.081 26h14.973l7.92-13.5 7.92 13H203l-16.383-26.4Z" fill="#333"/><path fill-rule="evenodd" clip-rule="evenodd" d="M140.397 57.4V45.8h13.562l.108-10.3-4.231.1h-9.439v-9.8h9.439l3.906-.1.108-9.6h-4.014l-22.676.1V68l22.676.1h4.231l.109-10.7h-13.779ZM124.773 28c-1.628-7-6.293-11.7-15.624-11.7H83.978v51.8L97.43 68V46.9l7.487 12.3 5.316 8.8 14.539.1-12.477-21.2c10.198-2.3 14.104-12 12.477-18.9Zm-19.313 9.7h-.542l-7.704-.1V26.1l7.704-.1h1.41c8.68.3 8.355 11.7-.868 11.7Z" fill="#333"/></svg>