<svg width="40" height="40" fill="none" xmlns="http://www.w3.org/2000/svg"><rect width="40" height="40" rx="5" fill="#01B31D"/><path d="M11.2 20c0-4.8 3.9-8.8 8.8-8.8 4.8 0 8.8 3.9 8.8 8.8 0 4.8-3.9 8.8-8.8 8.8V30c5.5 0 10-4.5 10-10s-4.5-10-10-10-10 4.5-10 10h1.2Z" fill="#fff"/><path d="M24.8 16.3 21.1 20l3.7 3.7c.8-1 1.3-2.3 1.3-3.7 0-1.4-.5-2.7-1.3-3.7ZM20 18.9l3.7-3.7c-1-.8-2.3-1.3-3.7-1.3-1.4 0-2.7.5-3.7 1.3l3.7 3.7ZM18.9 20l-3.7-3.7c-.8 1-1.3 2.3-1.3 3.7 0 1.4.5 2.7 1.3 3.7l3.7-3.7Zm1.1 1.1-3.7 3.7c1 .8 2.3 1.3 3.7 1.3 1.4 0 2.7-.5 3.7-1.3L20 21.1Z" fill="#fff"/></svg>