<svg width="130" height="200" fill="none" xmlns="http://www.w3.org/2000/svg"><path d="M31.32 188.48c0 4.32-1.88 11.52-14.4 11.52H0v-39.8h16.92c8.36 0 12.96 3.56 12.96 10 .04 3.72-2.12 7.08-5.48 8.64 4.24 1.28 6.92 4.88 6.92 9.64Zm-14.4-24.08H4.72v12.84h12.2c5.08 0 8.24-2.36 8.24-6.08 0-4.48-2.76-6.76-8.24-6.76Zm0 17H4.72v14.48h12.2c3.6.04 6.24-.76 7.84-2.36 1.24-1.24 1.88-2.96 1.88-5.16 0-5.76-5.28-6.96-9.72-6.96ZM40.88 200h4.2v-39.8H40.4V200h.48Zm61.56-12.04h16.96l4.6 11.72.12.32h5.04l-.28-.68-15.2-38.76-.12-.32h-4.84l-.12.32-15.64 38.76-.28.68h5.08l.12-.32 4.56-11.72Zm8.56-22.12 6.76 17.96h-13.8l7.04-17.96ZM127.12 0H0v4.04h127.12V0Zm0 144.6H0v4.04h127.12v-4.04ZM73.56 48.24c2.72-1.32 6.36-2.12 9.32-2.4 1.92 3.88 4.12 9.16.8 13.48-1.72-6.48-5.16-8.12-10.12-11.08ZM54.64 25.08C49.16 19.56 42 18.76 42 18.76c19.2-3.12 17.4-3.52 22.44 15.32-.04 0-6.56-5.72-9.8-9ZM43.6 32.32c-16.8 2.56-11.32 6.64-21.52 22.64 4.4-3.4 11.32-6.84 14.64-11.24 3.52-4.56-2.12-7.56 6.88-11.4Zm.52 17.84C24.92 57.6 25.84 64 37.76 79.84c5.72-7.64-7.08-20.24 6.36-29.68ZM25.68 36.32C9.44 44.2 9.4 43.36 9.36 61.12c5.24-2.96 11.32-18.88 16.32-24.8Zm52.24 57.64c-15.2 7.4-14.88 9.28-18.56 25.96 5.68-10.12 10.08-18.08 18.56-25.96Zm-8.92.8c-14.6-.24-11.96 2.24-13.84 16.32C58.8 102.72 60 98.16 69 94.76ZM25.2 84.6c9.76 16.6 8.56 18.88 2.92 37.44.92-14.2.6-23.64-2.92-37.44Zm-7.52 19.28c.84-3.92 1.68-7.84 2.48-11.76.36 11-.96 22.92 3.8 33.16-8.08-9-8.48-9.56-6.28-21.4Z" fill="#273B98"/><path d="M65.44 22.64s7.8 6.96 9.28 8.24c1.48 1.24 2.8 1.52 1.2 3.68-1.6 2.16-1.96 2.68-1.96 2.68s1.4.6 3.84 1.64c2.44 1 6.4 2.96 10.6 5.2 4.2 2.24 9.96 4.2 17.24 5.28 12.76 1.92 11.12 3.28 11.24 8.52.12 5.24.32 6.08.84 9.08s.92 4.2-3.28 4.64c-.8 1.24-1.24 2.2-1.24 2.2s4.68-.24 4.88 4.56c.16 4.8-2.44 9.24-10.96 8.52 4.4-2.56 7.08-4.04 7.48-8.08-6.64.44-13.92.68-15.76.68-1.84 0-3.32.04-5.76-2.64 7.04-.48 10.08-.84 11.76-1.04 1.68-.2 4.28-.24 5.68-2.44 1.76-2.68 3.76-6.32 4.44-8.12.68-1.76 1.84-3.56-1.04-5.08s-7.32-3.84-7.32-3.84l4.92-2.76-10.24-2.92c-2.2-.64-8.04-2.8-10.08-3.92-2.04-1.12-11.52-7.2-22.72-8.24 1.32-5.72 1.24-10.28-3.04-15.84ZM105.4 87.4s-10.28 7.68-12.88 9.88c-2.6 2.2-5.96 5.12-5.12 11.6.84 6.48 2.28 14.12-6.36 22.76 3.44-9.36 4.4-12.44 2.68-20-1.4-6.28-4.36-17.68 21.68-24.24ZM87.56 188.48c0 4.32-1.88 11.52-14.4 11.52H56.24v-39.8h16.92c8.36 0 12.96 3.56 12.96 10 .04 3.72-2.12 7.08-5.48 8.64 4.24 1.28 6.92 4.88 6.92 9.64Zm-14.4-24.08h-12.2v12.84h12.2c5.08 0 8.24-2.36 8.24-6.08-.04-4.48-2.8-6.76-8.24-6.76Zm0 17h-12.2v14.48h12.2c3.6.04 6.24-.76 7.84-2.36 1.24-1.24 1.88-2.96 1.88-5.16-.04-5.76-5.32-6.96-9.72-6.96ZM10.08 34.12s16.76-12.88 22.6-14.64c.56-.2 1.16-.2 1.72 0 0 0 17.48 7.92 25.88 15.56 0 0-18.2-6.84-25.48-8.56-1.48-.32-3-.36-4.48-.08-7 1.88-13.76 4.48-20.24 7.72Zm30.64 50.56s7.64 6.88 7.68 16.8c0 0 .08 11.48-5.48 16.44.04 0 5.08-19.12-2.2-33.24Z" fill="#273B98"/></svg>