<svg width="203" height="70" viewBox="0 0 203 70" fill="none" xmlns="http://www.w3.org/2000/svg">
<path fill-rule="evenodd" clip-rule="evenodd" d="M0 68.7L14.4303 68.8V39.1H31.8985V27.3H14.5387V13.4H31.8985V0.400049L0 0.300049V68.7Z" fill="#333333"/>
<path fill-rule="evenodd" clip-rule="evenodd" d="M56.9615 14.6999C56.7446 14.6999 56.5276 14.6999 56.4191 14.6999C41.3378 14.9999 33.7429 27.4999 33.6345 43.6999C33.526 59.6999 44.7013 69.7999 56.9615 69.9999C57.1785 69.9999 57.3955 69.9999 57.6125 69.9999C70.0898 69.8999 80.5056 58.6999 80.5056 42.9999C80.5056 25.4999 71.7173 14.5999 56.9615 14.6999ZM57.6125 57.5999C57.3955 57.5999 57.1785 57.5999 56.9615 57.5999C48.9327 57.2999 47.3052 49.1999 47.1967 42.3999C47.1967 35.2999 48.4987 26.6999 56.9615 26.3999C65.3159 26.1999 66.6179 35.7999 66.6179 41.4999C66.5094 47.2999 66.1839 57.5999 57.6125 57.5999Z" fill="#333333"/>
<path fill-rule="evenodd" clip-rule="evenodd" d="M186.617 41.3L201.047 16.2L186.291 16.1L179.13 28.3L161.771 0H149.836H145.496L149.836 7.1L171.21 42.2L156.129 68.2H171.102L179.022 54.7L186.942 67.7H203L186.617 41.3Z" fill="#333333"/>
<path fill-rule="evenodd" clip-rule="evenodd" d="M140.397 57.4001V45.8001H149.836H153.959L154.067 35.5001L149.836 35.6001H140.397V25.8001H149.836L153.742 25.7001L153.85 16.1001H149.836L127.16 16.2001V68.0001L149.836 68.1001H154.067L154.176 57.4001H149.836H140.397Z" fill="#333333"/>
<path fill-rule="evenodd" clip-rule="evenodd" d="M124.773 28C123.145 21 118.48 16.3 109.149 16.3H105.026H83.9775V68.1L97.4313 68V46.9001L104.918 59.2001L110.234 68L124.773 68.1L112.296 46.9001C122.494 44.6001 126.4 34.9 124.773 28ZM105.46 37.7001H104.918L97.2143 37.6V26.1L104.918 26H106.328C115.008 26.3 114.683 37.7001 105.46 37.7001Z" fill="#333333"/>
</svg>
