<svg width="40" height="40" viewBox="0 0 40 40" fill="none" xmlns="http://www.w3.org/2000/svg">
<rect width="40" height="40" rx="5" fill="#FF0000"/>
<path d="M11.2346 20C11.2346 15.1667 15.1667 11.2346 20 11.2346C24.8333 11.2346 28.7654 15.1667 28.7654 20C28.7654 24.8333 24.8333 28.7654 20 28.7654V30C25.514 30 30 25.514 30 20C30 14.486 25.514 10 20 10C14.486 10 10 14.486 10 20H11.2346Z" fill="white"/>
<path d="M25.3448 17.1979L20.2756 22.267L19.6132 22.9295L18.9506 22.267L16.426 19.7423L17.5866 18.5819L19.6955 20.6908L24.4572 15.9291C23.1128 14.6113 21.6135 13.9507 19.9589 13.9507C16.5951 13.9507 13.8683 16.6775 13.8683 20.0412C13.8683 23.4049 16.5951 26.1318 19.9589 26.1318C23.3226 26.1318 26.0494 23.4049 26.0494 20.0412C26.0494 19.014 25.7939 18.0468 25.3448 17.1979Z" fill="white"/>
</svg>
